<?xml version="1.0" encoding="utf-8"?>
<!-- Generator: Adobe Illustrator 15.0.0, SVG Export Plug-In . SVG Version: 6.00 Build 0)  -->
<!DOCTYPE svg PUBLIC "-//W3C//DTD SVG 1.1//EN" "http://www.w3.org/Graphics/SVG/1.1/DTD/svg11.dtd">
<svg version="1.1" id="Layer_1" xmlns="http://www.w3.org/2000/svg" xmlns:xlink="http://www.w3.org/1999/xlink" x="0px" y="0px"
	 width="2304px" height="2304px" viewBox="0 0 2304 2304" enable-background="new 0 0 2304 2304" xml:space="preserve">
<g>
	<g>
		<path fill="#009C4E" d="M230.915,225.659v838.463H121.442V225.659H230.915z"/>
		<path fill="#009C4E" d="M905.166,1036.754c-38.564,19.904-119.425,39.809-221.434,39.809
			c-236.363,0-413.011-149.282-413.011-424.209c0-262.485,177.893-439.135,437.892-439.135c103.253,0,170.429,22.393,199.042,36.076
			l-27.369,89.568c-39.807-19.903-98.277-34.832-167.94-34.832c-196.554,0-327.176,125.646-327.176,344.59
			c0,205.263,118.182,335.884,320.955,335.884c67.177,0,134.354-13.684,177.894-34.832L905.166,1036.754z"/>
		<path fill="#009C4E" d="M1375.383,671.015h-324.688V973.31h363.25v90.813H941.223V225.659h454.064v90.813h-344.592v264.974
			h324.688V671.015z"/>
		<path fill="#009C4E" d="M122.687,1262.135c52.248-9.953,120.668-17.416,207.75-17.416c106.984,0,185.356,24.879,235.117,69.664
			c46.028,39.809,74.64,100.765,74.64,174.161c0,75.886-22.391,135.598-65.932,179.137
			c-57.225,60.958-150.525,92.058-256.266,92.058c-32.344,0-62.2-1.244-87.081-7.464v337.128H122.687V1262.135z M230.915,1663.949
			c23.636,6.221,53.493,8.709,89.569,8.709c130.621,0,210.237-63.445,210.237-177.895c0-110.717-78.372-164.209-197.797-164.209
			c-47.272,0-83.348,3.731-102.008,8.707V1663.949z"/>
		<path fill="#009C4E" d="M684.974,1263.379c54.736-11.197,134.353-18.66,207.75-18.66c115.692,0,191.578,22.391,243.826,69.664
			c41.054,36.076,65.933,93.301,65.933,159.233c0,109.473-70.908,182.869-157.989,212.726v3.732
			c63.444,22.392,102.008,82.105,123.156,169.185c27.369,116.938,47.272,197.799,63.445,230.144h-111.961
			c-13.684-24.882-32.344-95.789-54.735-200.288c-24.882-115.692-70.91-159.233-169.187-162.964H793.203v363.252H684.974V1263.379z
			 M793.203,1644.046H903.92c115.692,0,189.089-63.445,189.089-159.233c0-108.229-78.373-155.502-192.822-155.502
			c-52.249,0-88.325,4.976-106.984,9.951V1644.046z"/>
	</g>
	<g>
		<path fill="#50B748" d="M1453.056,1381.245h-2.499l-141.157,76.2l-21.236-83.695l177.384-94.938h93.689v811.97h-106.181V1381.245z
			"/>
		<path fill="#50B748" d="M2182.558,1278.812v72.453l-353.52,739.517h-113.675l352.27-718.28v-2.499h-397.24v-91.19H2182.558z"/>
	</g>
</g>
</svg>
