<?xml version="1.0" encoding="utf-8"?>
<!-- Generator: Adobe Illustrator 15.0.0, SVG Export Plug-In . SVG Version: 6.00 Build 0)  -->
<!DOCTYPE svg PUBLIC "-//W3C//DTD SVG 1.1//EN" "http://www.w3.org/Graphics/SVG/1.1/DTD/svg11.dtd">
<svg version="1.1" id="Layer_1" xmlns="http://www.w3.org/2000/svg" xmlns:xlink="http://www.w3.org/1999/xlink" x="0px" y="0px"
	 width="2304px" height="2304px" viewBox="0 0 2304 2304" enable-background="new 0 0 2304 2304" xml:space="preserve">
<g>
	<path fill="#93BF52" d="M244.573,1107.5h-127v-851h127V1107.5z"/>
	<path fill="#93BF52" d="M768.538,1040.047c-0.172,44.813-22.656,67.297-67.453,67.453H416.991
		c-44.813-0.156-67.297-22.641-67.453-67.453V323.953c0.156-44.797,22.641-67.281,67.453-67.453h284.094
		c44.797,0.172,67.281,22.656,67.453,67.453V534.5h-127v-169h-165v633h165v-179h127V1040.047z"/>
	<path fill="#93BF52" d="M1221.613,1107.5H868.612v-851h350.001v113H995.612v248h192.001v110H995.612v267h226.001V1107.5z"/>
	<path fill="#93BF52" d="M1743.793,1107.5h-133l-140-395.328V635.5h125v-270h-160v742h-127v-851h346.547
		c44.969,0.172,67.453,22.656,67.453,67.453v330.094c0,30.969-12.172,51.094-36.5,60.375c-13.078,4.719-40.688,7.078-82.813,7.078
		L1743.793,1107.5z"/>
	<path fill="#93BF52" d="M2192.427,369.5h-140v738h-127v-738h-140v-113h407V369.5z"/>
	<path fill="#3F6DA6" d="M449.573,2047.5h-338V2007l261-541.234V1263.5h-174v191h-76v-194.906c0-18.313,5.859-33.406,17.609-45.281
		s26.906-17.813,45.484-17.813h199.813c18.484,0,33.625,5.922,45.406,17.75s17.688,26.938,17.688,45.344v177.5
		c0,21.766-6.734,46.609-20.188,74.516L202.573,1980.5h247V2047.5z"/>
	<path fill="#3F6DA6" d="M915.312,1984.406c0,18.406-5.983,33.531-17.937,45.359s-27,17.734-45.156,17.734H630.406
		c-18.5,0-33.641-5.906-45.422-17.734s-17.672-26.953-17.672-45.359v-724.813c0-18.406,5.891-33.516,17.672-45.344
		s26.922-17.75,45.422-17.75h221.813c18.156,0,33.203,5.922,45.156,17.75s17.937,26.938,17.937,45.344V1984.406z M839.313,1980.5
		v-717h-196v717H839.313z"/>
	<path fill="#3F6DA6" d="M1136.021,2047.5h-76v-590h-33v-2.25l47.625-258.75h61.375V2047.5z"/>
	<path fill="#3F6DA6" d="M1404.367,2047.5h-75l177-784h-182v125h-76v-192h338v39.172L1404.367,2047.5z"/>
</g>
</svg>
